# xmcd
#
# Track frame offsets: 
#        182
#        13310
#        31022
#        38232
#        64325
#        82802
#        124900
#        154165
#
# Disc length: 2283 seconds
#
# Revision: 1
# Processed by: cddbd v1.5.2PL0 Copyright (c) Steve Scherf et al.
# Submitted via: ExactAudioCopy v1.0b3
#
DISCID=5f08e908
DTITLE=Country Joe McDonald - IL Grande Rock
DYEAR=1992
DGENRE=
TTITLE0=I feel like I'm fixin' to die rag
TTITLE1=Wilderness trail
TTITLE2=Let's go riding
TTITLE3=Primitive People
TTITLE4=Vietnam never again
TTITLE5=Picks and lasers
TTITLE6=America my home
TTITLE7=Cocaine
EXTD=296
EXTT0=
EXTT1=
EXTT2=
EXTT3=
EXTT4=
EXTT5=
EXTT6=
EXTT7=
PLAYORDER=
